<svg width="520" height="260" viewBox="0 0 520 260" fill="none" xmlns="http://www.w3.org/2000/svg">
  <ellipse cx="258" cy="223" rx="112" ry="16" fill="#37A9F4" fill-opacity=".24"/>
  <rect x="79" y="28" width="362" height="170" rx="18" fill="#D8F2FF"/>
  <rect x="83" y="31" width="356" height="164" rx="16" stroke="#4E77B7" stroke-width="3"/>
  <rect x="145" y="56" width="228" height="104" rx="14" fill="#F2FAFF"/>
  <rect x="160" y="66" width="58" height="30" rx="15" fill="#FFF4D8"/>
  <path d="M173 80H205" stroke="#31A5EE" stroke-width="6" stroke-linecap="round"/>
  <rect x="293" y="66" width="58" height="30" rx="15" fill="#F8FFF8"/>
  <circle cx="322" cy="81" r="11" fill="#34C365"/>
  <path d="M315 82C318 79 325 79 329 82" stroke="#F8FFF8" stroke-width="3" stroke-linecap="round"/>
  <rect x="228" y="66" width="58" height="30" rx="15" fill="#FFF3F4"/>
  <rect x="239" y="74" width="34" height="14" rx="7" fill="#FF6269"/>

  <circle cx="253" cy="113" r="25" fill="#F0B187"/>
  <path d="M232 110C233 98 242 90 255 90C268 90 275 100 274 113" fill="#8E3E34"/>
  <path d="M208 143C214 125 230 116 252 116C275 116 292 127 297 143L306 190H198L208 143Z" fill="#5D63D1"/>
  <rect x="234" y="142" width="38" height="48" rx="6" fill="#FFF6ED"/>

  <circle cx="344" cy="101" r="18" fill="#EDAD85"/>
  <path d="M328 101C328 91 335 83 346 83C356 83 362 90 361 101" fill="#2A2B42"/>
  <path d="M323 121C329 111 337 107 347 107C357 107 366 112 371 121L377 149H317L323 121Z" fill="#E64B4B"/>

  <circle cx="176" cy="101" r="18" fill="#EAAA84"/>
  <path d="M160 101C160 91 167 83 178 83C188 83 194 90 193 101" fill="#2E3557"/>
  <path d="M155 121C161 111 169 107 179 107C189 107 198 112 203 121L209 149H149L155 121Z" fill="#F064A6"/>

  <rect x="54" y="84" width="61" height="95" rx="16" fill="#E9F7FF"/>
  <circle cx="85" cy="104" r="16" fill="#F0B187"/>
  <path d="M71 103C71 94 77 87 86 87C95 87 100 94 99 104" fill="#2B2C43"/>
  <path d="M62 126C67 117 75 113 85 113C95 113 104 118 108 126L114 170H56L62 126Z" fill="#445EBC"/>
  <rect x="97" y="138" width="32" height="22" rx="4" transform="rotate(12 97 138)" fill="#36404A"/>
  <rect x="102" y="146" width="18" height="10" rx="2" transform="rotate(12 102 146)" fill="#7AC9FF"/>
  <path d="M72 171L61 224" stroke="#2F2B35" stroke-width="9" stroke-linecap="round"/>
  <path d="M92 171L120 224" stroke="#2F2B35" stroke-width="9" stroke-linecap="round"/>
  <path d="M54 224H76" stroke="#3F4A49" stroke-width="7" stroke-linecap="round"/>
  <path d="M113 224H132" stroke="#3F4A49" stroke-width="7" stroke-linecap="round"/>

  <path d="M131 62H131V165" stroke="#85C7E8" stroke-width="5" stroke-linecap="round"/>
  <path d="M387 62H387V165" stroke="#85C7E8" stroke-width="5" stroke-linecap="round"/>
  <path d="M79 205H440" stroke="#4D78B8" stroke-width="4" stroke-linecap="round"/>

  <path d="M76 226C82 207 97 197 122 199V226H76Z" fill="#5EC28C"/>
  <path d="M95 223C96 208 107 198 125 198V223H95Z" fill="#45B973"/>
  <path d="M396 226C401 204 417 193 446 196V226H396Z" fill="#5EC28C"/>
  <path d="M418 226C420 208 430 197 447 196V226H418Z" fill="#45B973"/>
</svg>
