<svg width="160" height="96" viewBox="0 0 160 96" fill="none" xmlns="http://www.w3.org/2000/svg">
  <ellipse cx="80" cy="82" rx="54" ry="14" fill="#FF6A78"/>
  <rect x="88" y="26" width="40" height="28" rx="8" fill="#F8FBFF"/>
  <rect x="95" y="34" width="26" height="6" rx="3" fill="#3AA7F0"/>
  <rect x="95" y="44" width="18" height="4" rx="2" fill="#FFA36D"/>
  <circle cx="45" cy="62" r="16" fill="#FFC857"/>
  <circle cx="67" cy="54" r="16" fill="#FFB628"/>
  <circle cx="91" cy="62" r="16" fill="#FFA21B"/>
  <circle cx="110" cy="67" r="13" fill="#FFD86C"/>
  <circle cx="72" cy="37" r="8" fill="#F0B187"/>
  <path d="M64 37C64 29 69 24 76 24C84 24 88 29 88 37" fill="#2A3358"/>
  <path d="M58 51C62 42 68 39 76 39C84 39 91 43 95 51L100 69H54L58 51Z" fill="#37C36A"/>
  <path d="M78 47L95 34" stroke="#2A3358" stroke-width="4" stroke-linecap="round"/>
</svg>
